# xmcd
#
# Track frame offsets: 
#        150
#        28077
#        30481
#        57321
#        68796
#        80754
#        110338
#        145081
#        162821
#
# Disc length: 2372 seconds
#
# Revision: 0
# Processed by: cddbd v1.4PL0 Copyright (c) Steve Scherf et al.
# Submitted via: ExactAudioCopy v0.90b4
#
DISCID=72094209
DTITLE=Van Morrison - Wakefield, disc 1
DYEAR=1984
DGENRE=Celtic
TTITLE0=Inarticulate Speech Of The Heart # 1
TTITLE1=Inarticulate Speech Of The Heart # 2
TTITLE2=Baby Please Don't Go > Gloria > Here Comes The Night > Brown E
TTITLE2=yed Girl
TTITLE3=I Will Be There
TTITLE4=Jackie Wilson Said ...
TTITLE5=St. Dominic's Preview
TTITLE6=It's All In The Game > You Know What They're Writing About
TTITLE7=Northern Muse (Solid Ground)
TTITLE8=Hard Nose The Highway
EXTD=
EXTT0=
EXTT1=
EXTT2=
EXTT3=
EXTT4=
EXTT5=
EXTT6=
EXTT7=
EXTT8=
PLAYORDER=
